<?xml version="1.0" encoding="UTF-8" standalone="no"?><!DOCTYPE svg PUBLIC "-//W3C//DTD SVG 1.1//EN" "http://www.w3.org/Graphics/SVG/1.1/DTD/svg11.dtd"><svg width="100%" height="100%" viewBox="0 0 313 313" version="1.1" xmlns="http://www.w3.org/2000/svg" xmlns:xlink="http://www.w3.org/1999/xlink" xml:space="preserve" xmlns:serif="http://www.serif.com/" style="fill-rule:evenodd;clip-rule:evenodd;stroke-linejoin:round;stroke-miterlimit:2;"><path id="Path" d="M76.987,263.199l-55.981,-35.025l0,-149.692l136.903,-78.482l133.585,78.613l-0,157.455l-135.707,76.432l-47.113,-29.477l-0,-71.73l-25.547,-15.984l0,-81.176l73.968,-42.403l72.278,42.534l-0,85.062l-57.224,32.228l-0,-34.258c17.153,-6.606 29.466,-23.584 29.466,-43.623c-0,-25.829 -20.456,-46.574 -45.364,-46.574c-24.91,-0 -45.365,20.745 -45.365,46.574c0,20.039 12.312,37.017 29.465,43.623l0,64.91l16.362,10.236l100.332,-56.509l0,-117.623l-99.362,-58.473l-102.228,58.604l-0,110.65l21.532,13.473l0,40.635Zm79.264,-130.926c11.272,0 20.189,9.712 20.189,21.4c0,11.687 -8.917,21.399 -20.189,21.399c-11.272,0 -20.191,-9.712 -20.191,-21.399c-0,-11.688 8.919,-21.4 20.191,-21.4Z" style="fill:url(#_Linear1);"/><defs><linearGradient id="_Linear1" x1="0" y1="0" x2="1" y2="0" gradientUnits="userSpaceOnUse" gradientTransform="matrix(266.326,155.115,-179.208,307.692,22.8979,79.8275)"><stop offset="0" style="stop-color:#9108d7;stop-opacity:1"/><stop offset="1" style="stop-color:#2871f5;stop-opacity:1"/></linearGradient></defs></svg>